<svg width="42" height="42" viewBox="0 0 42 42" fill="none" xmlns="http://www.w3.org/2000/svg">
<g clip-path="url(#clip0_1_8)">
<path d="M2.05078 0C0.918168 0 0 0.918168 0 2.05078V39.9492C-1.06062e-08 40.0644 0.0125153 40.1763 0.0307617 40.2863C0.172942 41.2572 0.908307 42 1.80212 42H2.05078H35.1119C36.1074 42 36.9141 41.0817 36.9141 39.9492C36.9141 38.8166 36.1074 37.8984 35.1119 37.8984H9.57461H6.1626C5.02441 37.8984 4.10156 36.9756 4.10156 35.8374V6.1626C4.10156 5.02441 5.02441 4.10156 6.1626 4.10156H9.57461H39.9492C41.0817 4.10156 42 3.18339 42 2.05078C42 0.918168 41.0817 0 39.9492 0H2.05078ZM10.2539 8.20312C9.1213 8.20312 8.20312 9.1213 8.20312 10.2539V31.7461C8.20312 32.8787 9.1213 33.7969 10.2539 33.7969H34.8633C35.9959 33.7969 36.9141 32.8787 36.9141 31.7461C36.9141 30.6135 35.9959 29.6953 34.8633 29.6953H14.3555V29.694C13.2215 29.6857 12.3047 28.7651 12.3047 27.6292V25.1169C12.3047 23.981 13.2215 23.0604 14.3555 23.0521V23.0508H34.8633C34.9341 23.0508 35.0045 23.0475 35.0735 23.0405C36.1076 22.9355 36.9141 22.0618 36.9141 21V10.2539C36.9141 9.1213 35.9959 8.20312 34.8633 8.20312H10.2539ZM14.3708 12.3047H30.7463C31.8875 12.3047 32.8125 13.2297 32.8125 14.3708V16.8831C32.8125 18.0242 31.8874 18.9492 30.7463 18.9492H14.3708C13.2297 18.9492 12.3047 18.0242 12.3047 16.8831V14.3708C12.3047 13.2297 13.2297 12.3047 14.3708 12.3047ZM39.9492 37.8984C38.8166 37.8984 37.8984 38.8166 37.8984 39.9492C37.8984 41.0817 38.8166 42 39.9492 42C41.0817 42 42 41.0817 42 39.9492C42 38.8166 41.0817 37.8984 39.9492 37.8984Z" fill="url(#paint0_linear_1_8)"/>
</g>
<defs>
<linearGradient id="paint0_linear_1_8" x1="0" y1="21" x2="42" y2="21" gradientUnits="userSpaceOnUse">
<stop stop-color="#0072FF"/>
<stop offset="1" stop-color="#8D00FF"/>
</linearGradient>
<clipPath id="clip0_1_8">
<rect width="42" height="42" fill="white"/>
</clipPath>
</defs>
</svg>
