<svg width="32" height="32" viewBox="0 0 32 32" fill="none" xmlns="http://www.w3.org/2000/svg">
<g clip-path="url(#clip0_4_20)">
<path d="M1.5625 0C0.699556 0 0 0.699556 0 1.5625V30.4375C-8.08093e-09 30.5252 0.0095355 30.6105 0.0234375 30.6943C0.131765 31.4341 0.692044 32 1.37305 32H1.5625H26.7519C27.5104 32 28.125 31.3003 28.125 30.4375C28.125 29.5746 27.5104 28.875 26.7519 28.875H7.29494H4.69531C3.82812 28.875 3.125 28.1719 3.125 27.3047V4.69531C3.125 3.82812 3.82812 3.125 4.69531 3.125H7.29494H30.4375C31.3003 3.125 32 2.42544 32 1.5625C32 0.699556 31.3003 0 30.4375 0H1.5625ZM7.8125 6.25C6.94956 6.25 6.25 6.94956 6.25 7.8125V24.1875C6.25 25.0504 6.94956 25.75 7.8125 25.75H26.5625C27.4254 25.75 28.125 25.0504 28.125 24.1875C28.125 23.3246 27.4254 22.625 26.5625 22.625H10.9375V22.624C10.0735 22.6177 9.375 21.9163 9.375 21.0508V19.1367C9.375 18.2712 10.0735 17.5698 10.9375 17.5635V17.5625H26.5625C26.6164 17.5625 26.6701 17.56 26.7227 17.5547C27.5106 17.4747 28.125 16.809 28.125 16V7.8125C28.125 6.94956 27.4254 6.25 26.5625 6.25H7.8125ZM10.9492 9.375H23.4258C24.2952 9.375 25 10.0798 25 10.9492V12.8633C25 13.7327 24.2952 14.4375 23.4258 14.4375H10.9492C10.0798 14.4375 9.375 13.7327 9.375 12.8633V10.9492C9.375 10.0798 10.0798 9.375 10.9492 9.375ZM30.4375 28.875C29.5746 28.875 28.875 29.5746 28.875 30.4375C28.875 31.3003 29.5746 32 30.4375 32C31.3003 32 32 31.3003 32 30.4375C32 29.5746 31.3003 28.875 30.4375 28.875Z" fill="url(#paint0_linear_4_20)"/>
</g>
<defs>
<linearGradient id="paint0_linear_4_20" x1="0" y1="16" x2="32" y2="16" gradientUnits="userSpaceOnUse">
<stop stop-color="#0072FF"/>
<stop offset="1" stop-color="#8D00FF"/>
</linearGradient>
<clipPath id="clip0_4_20">
<rect width="32" height="32" fill="white"/>
</clipPath>
</defs>
</svg>
