<svg width="20" height="20" viewBox="0 0 20 20" fill="none" xmlns="http://www.w3.org/2000/svg">
<path d="M10.0007 10.0003C10.459 10.0003 10.8515 9.83699 11.1782 9.51032C11.5048 9.18366 11.6679 8.79144 11.6673 8.33366C11.6673 7.87533 11.504 7.48283 11.1773 7.15616C10.8507 6.82949 10.4584 6.66644 10.0007 6.66699C9.54232 6.66699 9.14982 6.83033 8.82315 7.15699C8.49648 7.48366 8.33343 7.87588 8.33398 8.33366C8.33398 8.79199 8.49732 9.18449 8.82399 9.51116C9.15065 9.83783 9.54287 10.0009 10.0007 10.0003ZM10.0007 16.1253C11.6951 14.5698 12.952 13.1564 13.7715 11.8853C14.5909 10.6142 15.0007 9.48588 15.0007 8.50033C15.0007 6.98644 14.5179 5.74699 13.5523 4.78199C12.5868 3.81699 11.4029 3.33421 10.0007 3.33366C8.59787 3.33366 7.41371 3.81644 6.44815 4.78199C5.4826 5.74755 5.0001 6.98699 5.00065 8.50033C5.00065 9.48644 5.41037 10.615 6.22982 11.8862C7.04926 13.1573 8.30621 14.5703 10.0007 16.1253ZM10.0007 18.3337C7.76454 16.4309 6.09454 14.6637 4.99065 13.032C3.88676 11.4003 3.33454 9.88977 3.33398 8.50033C3.33398 6.41699 4.00426 4.75727 5.34482 3.52116C6.68537 2.28505 8.23732 1.66699 10.0007 1.66699C11.7645 1.66699 13.3168 2.28505 14.6573 3.52116C15.9979 4.75727 16.6679 6.41699 16.6673 8.50033C16.6673 9.88921 16.1151 11.3998 15.0107 13.032C13.9062 14.6642 12.2362 16.4314 10.0007 18.3337Z" fill="white"/>
</svg>
